<svg width="60" height="40" viewBox="0 0 60 40" fill="none" xmlns="http://www.w3.org/2000/svg">
<g filter="url(#filter0_d_180_11781)">
<rect x="2" y="1" width="55.848" height="36" rx="8" fill="white"/>
<rect x="2.5" y="1.5" width="54.848" height="35" rx="7.5" stroke="#F4F4F5"/>
<path d="M34.231 11.1381H25.6191V26.8621H34.231V11.1381Z" fill="#FF5F00"/>
<path d="M26.1651 19C26.1638 17.4857 26.5015 15.9909 27.1528 14.6288C27.804 13.2667 28.7518 12.0729 29.9242 11.138C28.4723 9.97846 26.7286 9.25736 24.8924 9.05711C23.0562 8.85687 21.2016 9.18556 19.5406 10.0056C17.8796 10.8257 16.4791 12.1041 15.4993 13.6946C14.5196 15.2851 14 17.1236 14 19C14 20.8764 14.5196 22.7149 15.4993 24.3054C16.4791 25.8959 17.8796 27.1743 19.5406 27.9944C21.2016 28.8144 23.0562 29.1431 24.8924 28.9429C26.7286 28.7426 28.4723 28.0215 29.9242 26.862C28.7518 25.927 27.8041 24.7333 27.1528 23.3712C26.5015 22.0091 26.1638 20.5143 26.1651 19Z" fill="#EB001B"/>
<path d="M45.8476 19C45.8476 20.8763 45.3281 22.7148 44.3484 24.3054C43.3687 25.8959 41.9683 27.1743 40.3073 27.9943C38.6463 28.8144 36.7917 29.1431 34.9555 28.9429C33.1194 28.7426 31.3757 28.0215 29.9238 26.862C31.0952 25.9261 32.0422 24.7322 32.6934 23.3703C33.3446 22.0084 33.6829 20.5141 33.6829 19C33.6829 17.4859 33.3446 15.9916 32.6934 14.6297C32.0422 13.2678 31.0952 12.0739 29.9238 11.138C31.3757 9.97845 33.1194 9.25735 34.9555 9.05711C36.7917 8.85687 38.6463 9.18558 40.3073 10.0057C41.9683 10.8257 43.3687 12.1041 44.3484 13.6946C45.3281 15.2851 45.8476 17.1237 45.8476 19Z" fill="#F79E1B"/>
<path d="M44.9085 25.1966V24.8747H45.0363V24.8091H44.7109V24.8747H44.8387V25.1966H44.9085ZM45.5402 25.1966V24.8085H45.4405L45.3258 25.0754L45.211 24.8085H45.1112V25.1966H45.1817V24.9038L45.2892 25.1563H45.3623L45.4698 24.9032V25.1966H45.5402Z" fill="#F79E1B"/>
</g>
<defs>
<filter id="filter0_d_180_11781" x="0" y="0" width="59.8477" height="40" filterUnits="userSpaceOnUse" color-interpolation-filters="sRGB">
<feFlood flood-opacity="0" result="BackgroundImageFix"/>
<feColorMatrix in="SourceAlpha" type="matrix" values="0 0 0 0 0 0 0 0 0 0 0 0 0 0 0 0 0 0 127 0" result="hardAlpha"/>
<feOffset dy="1"/>
<feGaussianBlur stdDeviation="1"/>
<feColorMatrix type="matrix" values="0 0 0 0 0.0627451 0 0 0 0 0.0941176 0 0 0 0 0.156863 0 0 0 0.05 0"/>
<feBlend mode="normal" in2="BackgroundImageFix" result="effect1_dropShadow_180_11781"/>
<feBlend mode="normal" in="SourceGraphic" in2="effect1_dropShadow_180_11781" result="shape"/>
</filter>
</defs>
</svg>
